<svg xmlns="http://www.w3.org/2000/svg" xmlns:xlink="http://www.w3.org/1999/xlink" viewBox="0 0 403.13 402.6"><defs><style type="text/css">line,rect{fill:none;stroke:#000;stroke-linecap:round;stroke-linejoin:round;stroke-miterlimit:10}</style></defs><rect width="100%" height="100%" style="stroke:none;fill:#fff"/><rect width="403.13" height="402.6" x="0" y="0" style="stroke-width:1.07;stroke:#fff;fill:#fff"/><rect width="334.63" height="387.91" x="8.72" y="5.98" style="stroke-width:1.07;stroke:#fff;fill:#fff"/><line x1="237.27" x2="326.63" y1="338.47" y2="338.47" style="stroke-width:1.07;stroke:#00f"/><line x1="269.44" x2="326.63" y1="381.09" y2="381.09" style="stroke-width:1.07;stroke:#00f"/><line x1="250.09" x2="326.63" y1="317.15" y2="317.15" style="stroke-width:1.07;stroke:#00f"/><line x1="269.44" x2="326.63" y1="359.78" y2="359.78" style="stroke-width:1.07;stroke:#00f"/><line x1="278.84" x2="326.63" y1="295.84" y2="295.84" style="stroke-width:1.07;stroke:#00f"/><line x1="278.84" x2="326.63" y1="274.53" y2="274.53" style="stroke-width:1.07;stroke:#00f"/><line x1="275.96" x2="326.63" y1="167.96" y2="167.96" style="stroke-width:1.07;stroke:#00f"/><line x1="275.96" x2="326.63" y1="146.65" y2="146.65" style="stroke-width:1.07;stroke:#00f"/><line x1="286.52" x2="326.63" y1="40.08" y2="40.08" style="stroke-width:1.07;stroke:#00f"/><line x1="261.77" x2="326.63" y1="253.21" y2="253.21" style="stroke-width:1.07;stroke:#00f"/><line x1="286.52" x2="326.63" y1="18.77" y2="18.77" style="stroke-width:1.07;stroke:#00f"/><line x1="256.73" x2="326.63" y1="61.39" y2="61.39" style="stroke-width:1.07;stroke:#00f"/><line x1="273.29" x2="326.63" y1="104.02" y2="104.02" style="stroke-width:1.07;stroke:#00f"/><line x1="183.96" x2="326.63" y1="210.59" y2="210.59" style="stroke-width:1.07;stroke:#00f"/><line x1="273.29" x2="326.63" y1="82.71" y2="82.71" style="stroke-width:1.07;stroke:#00f"/><line x1="261.77" x2="326.63" y1="231.9" y2="231.9" style="stroke-width:1.07;stroke:#00f"/><line x1="260.01" x2="326.63" y1="125.33" y2="125.33" style="stroke-width:1.07;stroke:#00f"/><line x1="253.77" x2="326.63" y1="189.27" y2="189.27" style="stroke-width:1.07;stroke:#00f"/><line x1="23.93" x2="23.93" y1="275.19" y2="275.19" style="stroke-width:1.07;stroke:#00f"/><line x1="23.93" x2="168.63" y1="345.13" y2="345.13" style="stroke-width:1.07;stroke:#00f"/><line x1="23.93" x2="131.4" y1="205.26" y2="205.26" style="stroke-width:1.07;stroke:#00f"/><line x1="131.4" x2="261.77" y1="242.56" y2="242.56" style="stroke-width:1.07;stroke:#00f"/><line x1="131.4" x2="183.96" y1="167.96" y2="167.96" style="stroke-width:1.07;stroke:#00f"/><line x1="168.63" x2="269.44" y1="370.44" y2="370.44" style="stroke-width:1.07;stroke:#00f"/><line x1="168.63" x2="237.27" y1="319.82" y2="319.82" style="stroke-width:1.07;stroke:#00f"/><line x1="183.96" x2="215.17" y1="125.33" y2="125.33" style="stroke-width:1.07;stroke:#00f"/><line x1="215.17" x2="253.77" y1="173.29" y2="173.29" style="stroke-width:1.07;stroke:#00f"/><line x1="215.17" x2="233.01" y1="77.38" y2="77.38" style="stroke-width:1.07;stroke:#00f"/><line x1="233.01" x2="260.01" y1="109.35" y2="109.35" style="stroke-width:1.07;stroke:#00f"/><line x1="233.01" x2="256.73" y1="45.41" y2="45.41" style="stroke-width:1.07;stroke:#00f"/><line x1="237.27" x2="250.09" y1="301.17" y2="301.17" style="stroke-width:1.07;stroke:#00f"/><line x1="250.09" x2="278.84" y1="285.18" y2="285.18" style="stroke-width:1.07;stroke:#00f"/><line x1="253.77" x2="275.96" y1="157.3" y2="157.3" style="stroke-width:1.07;stroke:#00f"/><line x1="256.73" x2="286.52" y1="29.42" y2="29.42" style="stroke-width:1.07;stroke:#00f"/><line x1="260.01" x2="273.29" y1="93.36" y2="93.36" style="stroke-width:1.07;stroke:#00f"/><line x1="237.27" x2="237.27" y1="319.82" y2="338.47" style="stroke-width:1.07;stroke:#00f"/><line x1="269.44" x2="269.44" y1="370.44" y2="381.09" style="stroke-width:1.07;stroke:#00f"/><line x1="250.09" x2="250.09" y1="301.17" y2="317.15" style="stroke-width:1.07;stroke:#00f"/><line x1="269.44" x2="269.44" y1="370.44" y2="359.78" style="stroke-width:1.07;stroke:#00f"/><line x1="278.84" x2="278.84" y1="285.18" y2="295.84" style="stroke-width:1.07;stroke:#00f"/><line x1="278.84" x2="278.84" y1="285.18" y2="274.53" style="stroke-width:1.07;stroke:#00f"/><line x1="275.96" x2="275.96" y1="157.3" y2="167.96" style="stroke-width:1.07;stroke:#00f"/><line x1="275.96" x2="275.96" y1="157.3" y2="146.65" style="stroke-width:1.07;stroke:#00f"/><line x1="286.52" x2="286.52" y1="29.42" y2="40.08" style="stroke-width:1.07;stroke:#00f"/><line x1="261.77" x2="261.77" y1="242.56" y2="253.21" style="stroke-width:1.07;stroke:#00f"/><line x1="286.52" x2="286.52" y1="29.42" y2="18.77" style="stroke-width:1.07;stroke:#00f"/><line x1="256.73" x2="256.73" y1="45.41" y2="61.39" style="stroke-width:1.07;stroke:#00f"/><line x1="273.29" x2="273.29" y1="93.36" y2="104.02" style="stroke-width:1.07;stroke:#00f"/><line x1="183.96" x2="183.96" y1="167.96" y2="210.59" style="stroke-width:1.07;stroke:#00f"/><line x1="273.29" x2="273.29" y1="93.36" y2="82.71" style="stroke-width:1.07;stroke:#00f"/><line x1="261.77" x2="261.77" y1="242.56" y2="231.9" style="stroke-width:1.07;stroke:#00f"/><line x1="260.01" x2="260.01" y1="109.35" y2="125.33" style="stroke-width:1.07;stroke:#00f"/><line x1="253.77" x2="253.77" y1="173.29" y2="189.27" style="stroke-width:1.07;stroke:#00f"/><line x1="23.93" x2="23.93" y1="275.19" y2="275.19" style="stroke-width:1.07;stroke:#00f"/><line x1="23.93" x2="23.93" y1="275.19" y2="345.13" style="stroke-width:1.07;stroke:#00f"/><line x1="23.93" x2="23.93" y1="275.19" y2="205.26" style="stroke-width:1.07;stroke:#00f"/><line x1="131.4" x2="131.4" y1="205.26" y2="242.56" style="stroke-width:1.07;stroke:#00f"/><line x1="131.4" x2="131.4" y1="205.26" y2="167.96" style="stroke-width:1.07;stroke:#00f"/><line x1="168.63" x2="168.63" y1="345.13" y2="370.44" style="stroke-width:1.07;stroke:#00f"/><line x1="168.63" x2="168.63" y1="345.13" y2="319.82" style="stroke-width:1.07;stroke:#00f"/><line x1="183.96" x2="183.96" y1="167.96" y2="125.33" style="stroke-width:1.07;stroke:#00f"/><line x1="215.17" x2="215.17" y1="125.33" y2="173.29" style="stroke-width:1.07;stroke:#00f"/><line x1="215.17" x2="215.17" y1="125.33" y2="77.38" style="stroke-width:1.07;stroke:#00f"/><line x1="233.01" x2="233.01" y1="77.38" y2="109.35" style="stroke-width:1.07;stroke:#00f"/><line x1="233.01" x2="233.01" y1="77.38" y2="45.41" style="stroke-width:1.07;stroke:#00f"/><line x1="237.27" x2="237.27" y1="319.82" y2="301.17" style="stroke-width:1.07;stroke:#00f"/><line x1="250.09" x2="250.09" y1="301.17" y2="285.18" style="stroke-width:1.07;stroke:#00f"/><line x1="253.77" x2="253.77" y1="173.29" y2="157.3" style="stroke-width:1.07;stroke:#00f"/><line x1="256.73" x2="256.73" y1="45.41" y2="29.42" style="stroke-width:1.07;stroke:#00f"/><line x1="260.01" x2="260.01" y1="109.35" y2="93.36" style="stroke-width:1.07;stroke:#00f"/><text x="328.14" y="342.27" lengthAdjust="spacingAndGlyphs" textLength="22.7" style="font-size:11.04px;font-family:Arimo">M1A</text><text x="328.14" y="384.89" lengthAdjust="spacingAndGlyphs" textLength="22.7" style="font-size:11.04px;font-family:Arimo">M1B</text><text x="328.14" y="320.95" lengthAdjust="spacingAndGlyphs" textLength="20.87" style="font-size:11.04px;font-family:Arimo">A1A</text><text x="328.14" y="363.58" lengthAdjust="spacingAndGlyphs" textLength="20.87" style="font-size:11.04px;font-family:Arimo">A1B</text><text x="328.14" y="299.64" lengthAdjust="spacingAndGlyphs" textLength="20.87" style="font-size:11.04px;font-family:Arimo">V1A</text><text x="328.14" y="278.32" lengthAdjust="spacingAndGlyphs" textLength="20.87" style="font-size:11.04px;font-family:Arimo">V1B</text><text x="328.14" y="171.76" lengthAdjust="spacingAndGlyphs" textLength="22.7" style="font-size:11.04px;font-family:Arimo">M6A</text><text x="328.14" y="150.44" lengthAdjust="spacingAndGlyphs" textLength="22.7" style="font-size:11.04px;font-family:Arimo">M6B</text><text x="328.14" y="43.88" lengthAdjust="spacingAndGlyphs" textLength="20.87" style="font-size:11.04px;font-family:Arimo">A6A</text><text x="328.14" y="257.01" lengthAdjust="spacingAndGlyphs" textLength="20.87" style="font-size:11.04px;font-family:Arimo">A6B</text><text x="328.14" y="22.56" lengthAdjust="spacingAndGlyphs" textLength="20.87" style="font-size:11.04px;font-family:Arimo">V6A</text><text x="328.14" y="65.19" lengthAdjust="spacingAndGlyphs" textLength="20.87" style="font-size:11.04px;font-family:Arimo">V6B</text><text x="328.14" y="107.82" lengthAdjust="spacingAndGlyphs" textLength="28.84" style="font-size:11.04px;font-family:Arimo">M12A</text><text x="328.14" y="214.38" lengthAdjust="spacingAndGlyphs" textLength="28.84" style="font-size:11.04px;font-family:Arimo">M12B</text><text x="328.14" y="86.5" lengthAdjust="spacingAndGlyphs" textLength="27.01" style="font-size:11.04px;font-family:Arimo">A12A</text><text x="328.14" y="235.7" lengthAdjust="spacingAndGlyphs" textLength="27.01" style="font-size:11.04px;font-family:Arimo">A12B</text><text x="328.14" y="129.13" lengthAdjust="spacingAndGlyphs" textLength="27.01" style="font-size:11.04px;font-family:Arimo">V12A</text><text x="328.14" y="193.07" lengthAdjust="spacingAndGlyphs" textLength="27.01" style="font-size:11.04px;font-family:Arimo">V12B</text></svg>