<svg xmlns="http://www.w3.org/2000/svg" xmlns:xlink="http://www.w3.org/1999/xlink" viewBox="0 0 503.91 503.25"><defs><style type="text/css">circle,polygon,polyline,rect{fill:none;stroke:#000;stroke-linecap:round;stroke-linejoin:round;stroke-miterlimit:10}</style></defs><rect width="100%" height="100%" style="stroke:none;fill:#fff"/><rect width="503.91" height="503.25" x="0" y="0" style="stroke-width:1.07;stroke:#fff;fill:#fff"/><defs><clipPath id="cpMzAuODN8NDIxLjc3fDQ3Mi4zN3w1LjQ4"><rect width="390.94" height="466.89" x="30.83" y="5.48"/></clipPath></defs><rect width="390.94" height="466.89" x="30.83" y="5.48" clip-path="url(#cpMzAuODN8NDIxLjc3fDQ3Mi4zN3w1LjQ4)" style="stroke-width:1.07;stroke:none;fill:#ebebeb"/><polyline points="30.83 450.44 421.77 450.44" clip-path="url(#cpMzAuODN8NDIxLjc3fDQ3Mi4zN3w1LjQ4)" style="stroke-width:.53;stroke:#fff;stroke-linecap:butt"/><polyline points="30.83 349.35 421.77 349.35" clip-path="url(#cpMzAuODN8NDIxLjc3fDQ3Mi4zN3w1LjQ4)" style="stroke-width:.53;stroke:#fff;stroke-linecap:butt"/><polyline points="30.83 248.25 421.77 248.25" clip-path="url(#cpMzAuODN8NDIxLjc3fDQ3Mi4zN3w1LjQ4)" style="stroke-width:.53;stroke:#fff;stroke-linecap:butt"/><polyline points="30.83 147.16 421.77 147.16" clip-path="url(#cpMzAuODN8NDIxLjc3fDQ3Mi4zN3w1LjQ4)" style="stroke-width:.53;stroke:#fff;stroke-linecap:butt"/><polyline points="30.83 46.07 421.77 46.07" clip-path="url(#cpMzAuODN8NDIxLjc3fDQ3Mi4zN3w1LjQ4)" style="stroke-width:.53;stroke:#fff;stroke-linecap:butt"/><polyline points="48.6 472.37 48.6 5.48" clip-path="url(#cpMzAuODN8NDIxLjc3fDQ3Mi4zN3w1LjQ4)" style="stroke-width:.53;stroke:#fff;stroke-linecap:butt"/><polyline points="158.34 472.37 158.34 5.48" clip-path="url(#cpMzAuODN8NDIxLjc3fDQ3Mi4zN3w1LjQ4)" style="stroke-width:.53;stroke:#fff;stroke-linecap:butt"/><polyline points="268.08 472.37 268.08 5.48" clip-path="url(#cpMzAuODN8NDIxLjc3fDQ3Mi4zN3w1LjQ4)" style="stroke-width:.53;stroke:#fff;stroke-linecap:butt"/><polyline points="377.82 472.37 377.82 5.48" clip-path="url(#cpMzAuODN8NDIxLjc3fDQ3Mi4zN3w1LjQ4)" style="stroke-width:.53;stroke:#fff;stroke-linecap:butt"/><polyline points="30.83 399.89 421.77 399.89" clip-path="url(#cpMzAuODN8NDIxLjc3fDQ3Mi4zN3w1LjQ4)" style="stroke-width:1.07;stroke:#fff;stroke-linecap:butt"/><polyline points="30.83 298.8 421.77 298.8" clip-path="url(#cpMzAuODN8NDIxLjc3fDQ3Mi4zN3w1LjQ4)" style="stroke-width:1.07;stroke:#fff;stroke-linecap:butt"/><polyline points="30.83 197.71 421.77 197.71" clip-path="url(#cpMzAuODN8NDIxLjc3fDQ3Mi4zN3w1LjQ4)" style="stroke-width:1.07;stroke:#fff;stroke-linecap:butt"/><polyline points="30.83 96.61 421.77 96.61" clip-path="url(#cpMzAuODN8NDIxLjc3fDQ3Mi4zN3w1LjQ4)" style="stroke-width:1.07;stroke:#fff;stroke-linecap:butt"/><polyline points="103.47 472.37 103.47 5.48" clip-path="url(#cpMzAuODN8NDIxLjc3fDQ3Mi4zN3w1LjQ4)" style="stroke-width:1.07;stroke:#fff;stroke-linecap:butt"/><polyline points="213.21 472.37 213.21 5.48" clip-path="url(#cpMzAuODN8NDIxLjc3fDQ3Mi4zN3w1LjQ4)" style="stroke-width:1.07;stroke:#fff;stroke-linecap:butt"/><polyline points="322.95 472.37 322.95 5.48" clip-path="url(#cpMzAuODN8NDIxLjc3fDQ3Mi4zN3w1LjQ4)" style="stroke-width:1.07;stroke:#fff;stroke-linecap:butt"/><circle cx="222.1" cy="154.61" r=".89" clip-path="url(#cpMzAuODN8NDIxLjc3fDQ3Mi4zN3w1LjQ4)" style="stroke-width:.71;stroke:#bebebe;fill:#bebebe"/><circle cx="193.72" cy="182.27" r=".89" clip-path="url(#cpMzAuODN8NDIxLjc3fDQ3Mi4zN3w1LjQ4)" style="stroke-width:.71;stroke:#bebebe;fill:#bebebe"/><circle cx="193.79" cy="185.74" r=".89" clip-path="url(#cpMzAuODN8NDIxLjc3fDQ3Mi4zN3w1LjQ4)" style="stroke-width:.71;stroke:#bebebe;fill:#bebebe"/><circle cx="240.57" cy="170.07" r=".89" clip-path="url(#cpMzAuODN8NDIxLjc3fDQ3Mi4zN3w1LjQ4)" style="stroke-width:.71;stroke:#bebebe;fill:#bebebe"/><circle cx="228.34" cy="112.86" r=".89" clip-path="url(#cpMzAuODN8NDIxLjc3fDQ3Mi4zN3w1LjQ4)" style="stroke-width:.71;stroke:red;fill:red"/><circle cx="193.97" cy="451.15" r=".89" clip-path="url(#cpMzAuODN8NDIxLjc3fDQ3Mi4zN3w1LjQ4)" style="stroke-width:.71;stroke:red;fill:red"/><circle cx="142.77" cy="74.95" r=".89" clip-path="url(#cpMzAuODN8NDIxLjc3fDQ3Mi4zN3w1LjQ4)" style="stroke-width:.71;stroke:#bebebe;fill:#bebebe"/><circle cx="30.83" cy="147.67" r=".89" clip-path="url(#cpMzAuODN8NDIxLjc3fDQ3Mi4zN3w1LjQ4)" style="stroke-width:.71;stroke:#bebebe;fill:#bebebe"/><circle cx="225.45" cy="193.66" r=".89" clip-path="url(#cpMzAuODN8NDIxLjc3fDQ3Mi4zN3w1LjQ4)" style="stroke-width:.71;stroke:#bebebe;fill:#bebebe"/><circle cx="253.85" cy="196.2" r=".89" clip-path="url(#cpMzAuODN8NDIxLjc3fDQ3Mi4zN3w1LjQ4)" style="stroke-width:.71;stroke:#bebebe;fill:#bebebe"/><circle cx="257.63" cy="105.25" r=".89" clip-path="url(#cpMzAuODN8NDIxLjc3fDQ3Mi4zN3w1LjQ4)" style="stroke-width:.71;stroke:red;fill:red"/><circle cx="145.02" cy="213.36" r=".89" clip-path="url(#cpMzAuODN8NDIxLjc3fDQ3Mi4zN3w1LjQ4)" style="stroke-width:.71;stroke:#bebebe;fill:#bebebe"/><circle cx="30.83" cy="147.67" r=".89" clip-path="url(#cpMzAuODN8NDIxLjc3fDQ3Mi4zN3w1LjQ4)" style="stroke-width:.71;stroke:#bebebe;fill:#bebebe"/><circle cx="203.95" cy="150.57" r=".89" clip-path="url(#cpMzAuODN8NDIxLjc3fDQ3Mi4zN3w1LjQ4)" style="stroke-width:.71;stroke:#bebebe;fill:#bebebe"/><circle cx="321.93" cy="177.46" r=".89" clip-path="url(#cpMzAuODN8NDIxLjc3fDQ3Mi4zN3w1LjQ4)" style="stroke-width:.71;stroke:#bebebe;fill:#bebebe"/><circle cx="124.72" cy="256.06" r=".89" clip-path="url(#cpMzAuODN8NDIxLjc3fDQ3Mi4zN3w1LjQ4)" style="stroke-width:.71;stroke:#bebebe;fill:#bebebe"/><circle cx="30.83" cy="147.67" r=".89" clip-path="url(#cpMzAuODN8NDIxLjc3fDQ3Mi4zN3w1LjQ4)" style="stroke-width:.71;stroke:#bebebe;fill:#bebebe"/><circle cx="53.96" cy="123.58" r=".89" clip-path="url(#cpMzAuODN8NDIxLjc3fDQ3Mi4zN3w1LjQ4)" style="stroke-width:.71;stroke:#bebebe;fill:#bebebe"/><circle cx="30.83" cy="147.67" r=".89" clip-path="url(#cpMzAuODN8NDIxLjc3fDQ3Mi4zN3w1LjQ4)" style="stroke-width:.71;stroke:#bebebe;fill:#bebebe"/><circle cx="30.83" cy="147.67" r=".89" clip-path="url(#cpMzAuODN8NDIxLjc3fDQ3Mi4zN3w1LjQ4)" style="stroke-width:.71;stroke:#bebebe;fill:#bebebe"/><circle cx="221.99" cy="256.05" r=".89" clip-path="url(#cpMzAuODN8NDIxLjc3fDQ3Mi4zN3w1LjQ4)" style="stroke-width:.71;stroke:red;fill:red"/><circle cx="205.29" cy="173.83" r=".89" clip-path="url(#cpMzAuODN8NDIxLjc3fDQ3Mi4zN3w1LjQ4)" style="stroke-width:.71;stroke:#bebebe;fill:#bebebe"/><circle cx="218.08" cy="430.5" r=".89" clip-path="url(#cpMzAuODN8NDIxLjc3fDQ3Mi4zN3w1LjQ4)" style="stroke-width:.71;stroke:red;fill:red"/><circle cx="105.39" cy="322.54" r=".89" clip-path="url(#cpMzAuODN8NDIxLjc3fDQ3Mi4zN3w1LjQ4)" style="stroke-width:.71;stroke:#bebebe;fill:#bebebe"/><circle cx="193.19" cy="248.59" r=".89" clip-path="url(#cpMzAuODN8NDIxLjc3fDQ3Mi4zN3w1LjQ4)" style="stroke-width:.71;stroke:#bebebe;fill:#bebebe"/><circle cx="30.83" cy="147.67" r=".89" clip-path="url(#cpMzAuODN8NDIxLjc3fDQ3Mi4zN3w1LjQ4)" style="stroke-width:.71;stroke:#bebebe;fill:#bebebe"/><circle cx="225.69" cy="200" r=".89" clip-path="url(#cpMzAuODN8NDIxLjc3fDQ3Mi4zN3w1LjQ4)" style="stroke-width:.71;stroke:#bebebe;fill:#bebebe"/><circle cx="208.4" cy="153.94" r=".89" clip-path="url(#cpMzAuODN8NDIxLjc3fDQ3Mi4zN3w1LjQ4)" style="stroke-width:.71;stroke:#bebebe;fill:#bebebe"/><circle cx="270.46" cy="196.25" r=".89" clip-path="url(#cpMzAuODN8NDIxLjc3fDQ3Mi4zN3w1LjQ4)" style="stroke-width:.71;stroke:#bebebe;fill:#bebebe"/><circle cx="220.74" cy="129.93" r=".89" clip-path="url(#cpMzAuODN8NDIxLjc3fDQ3Mi4zN3w1LjQ4)" style="stroke-width:.71;stroke:red;fill:red"/><circle cx="174.1" cy="164.04" r=".89" clip-path="url(#cpMzAuODN8NDIxLjc3fDQ3Mi4zN3w1LjQ4)" style="stroke-width:.71;stroke:#bebebe;fill:#bebebe"/><circle cx="210.91" cy="192.32" r=".89" clip-path="url(#cpMzAuODN8NDIxLjc3fDQ3Mi4zN3w1LjQ4)" style="stroke-width:.71;stroke:#bebebe;fill:#bebebe"/><circle cx="208.86" cy="192.73" r=".89" clip-path="url(#cpMzAuODN8NDIxLjc3fDQ3Mi4zN3w1LjQ4)" style="stroke-width:.71;stroke:#bebebe;fill:#bebebe"/><circle cx="206.88" cy="224.22" r=".89" clip-path="url(#cpMzAuODN8NDIxLjc3fDQ3Mi4zN3w1LjQ4)" style="stroke-width:.71;stroke:#bebebe;fill:#bebebe"/><circle cx="30.83" cy="147.67" r=".89" clip-path="url(#cpMzAuODN8NDIxLjc3fDQ3Mi4zN3w1LjQ4)" style="stroke-width:.71;stroke:#bebebe;fill:#bebebe"/><circle cx="162.1" cy="201.56" r=".89" clip-path="url(#cpMzAuODN8NDIxLjc3fDQ3Mi4zN3w1LjQ4)" style="stroke-width:.71;stroke:#bebebe;fill:#bebebe"/><circle cx="198.71" cy="133.4" r=".89" clip-path="url(#cpMzAuODN8NDIxLjc3fDQ3Mi4zN3w1LjQ4)" style="stroke-width:.71;stroke:red;fill:red"/><circle cx="218.8" cy="179.49" r=".89" clip-path="url(#cpMzAuODN8NDIxLjc3fDQ3Mi4zN3w1LjQ4)" style="stroke-width:.71;stroke:#bebebe;fill:#bebebe"/><circle cx="225.21" cy="140.05" r=".89" clip-path="url(#cpMzAuODN8NDIxLjc3fDQ3Mi4zN3w1LjQ4)" style="stroke-width:.71;stroke:red;fill:red"/><circle cx="216.45" cy="121.82" r=".89" clip-path="url(#cpMzAuODN8NDIxLjc3fDQ3Mi4zN3w1LjQ4)" style="stroke-width:.71;stroke:#bebebe;fill:#bebebe"/><circle cx="224.59" cy="181.72" r=".89" clip-path="url(#cpMzAuODN8NDIxLjc3fDQ3Mi4zN3w1LjQ4)" style="stroke-width:.71;stroke:#bebebe;fill:#bebebe"/><circle cx="73.26" cy="92.07" r=".89" clip-path="url(#cpMzAuODN8NDIxLjc3fDQ3Mi4zN3w1LjQ4)" style="stroke-width:.71;stroke:#bebebe;fill:#bebebe"/><circle cx="30.83" cy="147.67" r=".89" clip-path="url(#cpMzAuODN8NDIxLjc3fDQ3Mi4zN3w1LjQ4)" style="stroke-width:.71;stroke:#bebebe;fill:#bebebe"/><circle cx="206.93" cy="122.45" r=".89" clip-path="url(#cpMzAuODN8NDIxLjc3fDQ3Mi4zN3w1LjQ4)" style="stroke-width:.71;stroke:red;fill:red"/><circle cx="251.91" cy="112.55" r=".89" clip-path="url(#cpMzAuODN8NDIxLjc3fDQ3Mi4zN3w1LjQ4)" style="stroke-width:.71;stroke:red;fill:red"/><circle cx="194.49" cy="226.08" r=".89" clip-path="url(#cpMzAuODN8NDIxLjc3fDQ3Mi4zN3w1LjQ4)" style="stroke-width:.71;stroke:#bebebe;fill:#bebebe"/><circle cx="30.83" cy="147.67" r=".89" clip-path="url(#cpMzAuODN8NDIxLjc3fDQ3Mi4zN3w1LjQ4)" style="stroke-width:.71;stroke:#bebebe;fill:#bebebe"/><circle cx="30.83" cy="147.67" r=".89" clip-path="url(#cpMzAuODN8NDIxLjc3fDQ3Mi4zN3w1LjQ4)" style="stroke-width:.71;stroke:#bebebe;fill:#bebebe"/><circle cx="146.99" cy="237.53" r=".89" clip-path="url(#cpMzAuODN8NDIxLjc3fDQ3Mi4zN3w1LjQ4)" style="stroke-width:.71;stroke:#bebebe;fill:#bebebe"/><circle cx="163.4" cy="210.83" r=".89" clip-path="url(#cpMzAuODN8NDIxLjc3fDQ3Mi4zN3w1LjQ4)" style="stroke-width:.71;stroke:#bebebe;fill:#bebebe"/><circle cx="246.79" cy="163.69" r=".89" clip-path="url(#cpMzAuODN8NDIxLjc3fDQ3Mi4zN3w1LjQ4)" style="stroke-width:.71;stroke:#bebebe;fill:#bebebe"/><circle cx="168.39" cy="167.41" r=".89" clip-path="url(#cpMzAuODN8NDIxLjc3fDQ3Mi4zN3w1LjQ4)" style="stroke-width:.71;stroke:#bebebe;fill:#bebebe"/><circle cx="237.51" cy="113.69" r=".89" clip-path="url(#cpMzAuODN8NDIxLjc3fDQ3Mi4zN3w1LjQ4)" style="stroke-width:.71;stroke:red;fill:red"/><circle cx="201.39" cy="215.2" r=".89" clip-path="url(#cpMzAuODN8NDIxLjc3fDQ3Mi4zN3w1LjQ4)" style="stroke-width:.71;stroke:#bebebe;fill:#bebebe"/><circle cx="188.13" cy="402.65" r=".89" clip-path="url(#cpMzAuODN8NDIxLjc3fDQ3Mi4zN3w1LjQ4)" style="stroke-width:.71;stroke:red;fill:red"/><circle cx="119.68" cy="289.24" r=".89" clip-path="url(#cpMzAuODN8NDIxLjc3fDQ3Mi4zN3w1LjQ4)" style="stroke-width:.71;stroke:#bebebe;fill:#bebebe"/><circle cx="61.04" cy="197.41" r=".89" clip-path="url(#cpMzAuODN8NDIxLjc3fDQ3Mi4zN3w1LjQ4)" style="stroke-width:.71;stroke:#bebebe;fill:#bebebe"/><circle cx="155.64" cy="175.25" r=".89" clip-path="url(#cpMzAuODN8NDIxLjc3fDQ3Mi4zN3w1LjQ4)" style="stroke-width:.71;stroke:#bebebe;fill:#bebebe"/><circle cx="193.87" cy="169.52" r=".89" clip-path="url(#cpMzAuODN8NDIxLjc3fDQ3Mi4zN3w1LjQ4)" style="stroke-width:.71;stroke:#bebebe;fill:#bebebe"/><circle cx="235.72" cy="298.61" r=".89" clip-path="url(#cpMzAuODN8NDIxLjc3fDQ3Mi4zN3w1LjQ4)" style="stroke-width:.71;stroke:red;fill:red"/><circle cx="150.49" cy="190.48" r=".89" clip-path="url(#cpMzAuODN8NDIxLjc3fDQ3Mi4zN3w1LjQ4)" style="stroke-width:.71;stroke:#bebebe;fill:#bebebe"/><circle cx="79.39" cy="305.29" r=".89" clip-path="url(#cpMzAuODN8NDIxLjc3fDQ3Mi4zN3w1LjQ4)" style="stroke-width:.71;stroke:#bebebe;fill:#bebebe"/><circle cx="30.83" cy="147.67" r=".89" clip-path="url(#cpMzAuODN8NDIxLjc3fDQ3Mi4zN3w1LjQ4)" style="stroke-width:.71;stroke:#bebebe;fill:#bebebe"/><circle cx="30.83" cy="147.67" r=".89" clip-path="url(#cpMzAuODN8NDIxLjc3fDQ3Mi4zN3w1LjQ4)" style="stroke-width:.71;stroke:#bebebe;fill:#bebebe"/><circle cx="30.83" cy="147.67" r=".89" clip-path="url(#cpMzAuODN8NDIxLjc3fDQ3Mi4zN3w1LjQ4)" style="stroke-width:.71;stroke:#bebebe;fill:#bebebe"/><circle cx="213.78" cy="168.33" r=".89" clip-path="url(#cpMzAuODN8NDIxLjc3fDQ3Mi4zN3w1LjQ4)" style="stroke-width:.71;stroke:#bebebe;fill:#bebebe"/><circle cx="280.78" cy="192.73" r=".89" clip-path="url(#cpMzAuODN8NDIxLjc3fDQ3Mi4zN3w1LjQ4)" style="stroke-width:.71;stroke:#bebebe;fill:#bebebe"/><circle cx="149.09" cy="308.08" r=".89" clip-path="url(#cpMzAuODN8NDIxLjc3fDQ3Mi4zN3w1LjQ4)" style="stroke-width:.71;stroke:#bebebe;fill:#bebebe"/><circle cx="56.26" cy="322.54" r=".89" clip-path="url(#cpMzAuODN8NDIxLjc3fDQ3Mi4zN3w1LjQ4)" style="stroke-width:.71;stroke:#bebebe;fill:#bebebe"/><circle cx="152.06" cy="374.5" r=".89" clip-path="url(#cpMzAuODN8NDIxLjc3fDQ3Mi4zN3w1LjQ4)" style="stroke-width:.71;stroke:red;fill:red"/><circle cx="163.9" cy="277.26" r=".89" clip-path="url(#cpMzAuODN8NDIxLjc3fDQ3Mi4zN3w1LjQ4)" style="stroke-width:.71;stroke:#bebebe;fill:#bebebe"/><circle cx="205.61" cy="259.53" r=".89" clip-path="url(#cpMzAuODN8NDIxLjc3fDQ3Mi4zN3w1LjQ4)" style="stroke-width:.71;stroke:#bebebe;fill:#bebebe"/><circle cx="185.36" cy="323.39" r=".89" clip-path="url(#cpMzAuODN8NDIxLjc3fDQ3Mi4zN3w1LjQ4)" style="stroke-width:.71;stroke:red;fill:red"/><circle cx="186.56" cy="254.22" r=".89" clip-path="url(#cpMzAuODN8NDIxLjc3fDQ3Mi4zN3w1LjQ4)" style="stroke-width:.71;stroke:#bebebe;fill:#bebebe"/><circle cx="166.74" cy="298.94" r=".89" clip-path="url(#cpMzAuODN8NDIxLjc3fDQ3Mi4zN3w1LjQ4)" style="stroke-width:.71;stroke:#bebebe;fill:#bebebe"/><circle cx="126.66" cy="262.95" r=".89" clip-path="url(#cpMzAuODN8NDIxLjc3fDQ3Mi4zN3w1LjQ4)" style="stroke-width:.71;stroke:#bebebe;fill:#bebebe"/><circle cx="157.48" cy="330.22" r=".89" clip-path="url(#cpMzAuODN8NDIxLjc3fDQ3Mi4zN3w1LjQ4)" style="stroke-width:.71;stroke:red;fill:red"/><circle cx="166.08" cy="310.2" r=".89" clip-path="url(#cpMzAuODN8NDIxLjc3fDQ3Mi4zN3w1LjQ4)" style="stroke-width:.71;stroke:red;fill:red"/><circle cx="188.13" cy="273.14" r=".89" clip-path="url(#cpMzAuODN8NDIxLjc3fDQ3Mi4zN3w1LjQ4)" style="stroke-width:.71;stroke:#bebebe;fill:#bebebe"/><circle cx="142.08" cy="289.95" r=".89" clip-path="url(#cpMzAuODN8NDIxLjc3fDQ3Mi4zN3w1LjQ4)" style="stroke-width:.71;stroke:#bebebe;fill:#bebebe"/><circle cx="151.89" cy="371.9" r=".89" clip-path="url(#cpMzAuODN8NDIxLjc3fDQ3Mi4zN3w1LjQ4)" style="stroke-width:.71;stroke:red;fill:red"/><circle cx="213.15" cy="258.79" r=".89" clip-path="url(#cpMzAuODN8NDIxLjc3fDQ3Mi4zN3w1LjQ4)" style="stroke-width:.71;stroke:#bebebe;fill:#bebebe"/><circle cx="236.1" cy="262.72" r=".89" clip-path="url(#cpMzAuODN8NDIxLjc3fDQ3Mi4zN3w1LjQ4)" style="stroke-width:.71;stroke:#bebebe;fill:#bebebe"/><circle cx="148.84" cy="298.84" r=".89" clip-path="url(#cpMzAuODN8NDIxLjc3fDQ3Mi4zN3w1LjQ4)" style="stroke-width:.71;stroke:#bebebe;fill:#bebebe"/><circle cx="187.36" cy="284.75" r=".89" clip-path="url(#cpMzAuODN8NDIxLjc3fDQ3Mi4zN3w1LjQ4)" style="stroke-width:.71;stroke:#bebebe;fill:#bebebe"/><circle cx="227.62" cy="266.75" r=".89" clip-path="url(#cpMzAuODN8NDIxLjc3fDQ3Mi4zN3w1LjQ4)" style="stroke-width:.71;stroke:#bebebe;fill:#bebebe"/><circle cx="230.67" cy="257.08" r=".89" clip-path="url(#cpMzAuODN8NDIxLjc3fDQ3Mi4zN3w1LjQ4)" style="stroke-width:.71;stroke:#bebebe;fill:#bebebe"/><circle cx="119.09" cy="320.69" r=".89" clip-path="url(#cpMzAuODN8NDIxLjc3fDQ3Mi4zN3w1LjQ4)" style="stroke-width:.71;stroke:#bebebe;fill:#bebebe"/><circle cx="141.24" cy="317.4" r=".89" clip-path="url(#cpMzAuODN8NDIxLjc3fDQ3Mi4zN3w1LjQ4)" style="stroke-width:.71;stroke:#bebebe;fill:#bebebe"/><circle cx="173.17" cy="314.45" r=".89" clip-path="url(#cpMzAuODN8NDIxLjc3fDQ3Mi4zN3w1LjQ4)" style="stroke-width:.71;stroke:#bebebe;fill:#bebebe"/><circle cx="187.75" cy="360.01" r=".89" clip-path="url(#cpMzAuODN8NDIxLjc3fDQ3Mi4zN3w1LjQ4)" style="stroke-width:.71;stroke:red;fill:red"/><circle cx="146.48" cy="299.26" r=".89" clip-path="url(#cpMzAuODN8NDIxLjc3fDQ3Mi4zN3w1LjQ4)" style="stroke-width:.71;stroke:#bebebe;fill:#bebebe"/><circle cx="202.34" cy="325.98" r=".89" clip-path="url(#cpMzAuODN8NDIxLjc3fDQ3Mi4zN3w1LjQ4)" style="stroke-width:.71;stroke:red;fill:red"/><circle cx="234.77" cy="299.57" r=".89" clip-path="url(#cpMzAuODN8NDIxLjc3fDQ3Mi4zN3w1LjQ4)" style="stroke-width:.71;stroke:red;fill:red"/><circle cx="262.53" cy="238.65" r=".89" clip-path="url(#cpMzAuODN8NDIxLjc3fDQ3Mi4zN3w1LjQ4)" style="stroke-width:.71;stroke:#bebebe;fill:#bebebe"/><circle cx="139.91" cy="326.22" r=".89" clip-path="url(#cpMzAuODN8NDIxLjc3fDQ3Mi4zN3w1LjQ4)" style="stroke-width:.71;stroke:#bebebe;fill:#bebebe"/><circle cx="128.67" cy="184.7" r=".89" clip-path="url(#cpMzAuODN8NDIxLjc3fDQ3Mi4zN3w1LjQ4)" style="stroke-width:.71;stroke:#bebebe;fill:#bebebe"/><circle cx="100.01" cy="225.21" r=".89" clip-path="url(#cpMzAuODN8NDIxLjc3fDQ3Mi4zN3w1LjQ4)" style="stroke-width:.71;stroke:#bebebe;fill:#bebebe"/><circle cx="203.79" cy="178.47" r=".89" clip-path="url(#cpMzAuODN8NDIxLjc3fDQ3Mi4zN3w1LjQ4)" style="stroke-width:.71;stroke:#bebebe;fill:#bebebe"/><circle cx="182.07" cy="162.79" r=".89" clip-path="url(#cpMzAuODN8NDIxLjc3fDQ3Mi4zN3w1LjQ4)" style="stroke-width:.71;stroke:#bebebe;fill:#bebebe"/><circle cx="30.83" cy="147.67" r=".89" clip-path="url(#cpMzAuODN8NDIxLjc3fDQ3Mi4zN3w1LjQ4)" style="stroke-width:.71;stroke:#bebebe;fill:#bebebe"/><circle cx="131.69" cy="156.5" r=".89" clip-path="url(#cpMzAuODN8NDIxLjc3fDQ3Mi4zN3w1LjQ4)" style="stroke-width:.71;stroke:#bebebe;fill:#bebebe"/><circle cx="157.04" cy="220.38" r=".89" clip-path="url(#cpMzAuODN8NDIxLjc3fDQ3Mi4zN3w1LjQ4)" style="stroke-width:.71;stroke:#bebebe;fill:#bebebe"/><circle cx="155.8" cy="245.66" r=".89" clip-path="url(#cpMzAuODN8NDIxLjc3fDQ3Mi4zN3w1LjQ4)" style="stroke-width:.71;stroke:#bebebe;fill:#bebebe"/><circle cx="169.5" cy="260.83" r=".89" clip-path="url(#cpMzAuODN8NDIxLjc3fDQ3Mi4zN3w1LjQ4)" style="stroke-width:.71;stroke:#bebebe;fill:#bebebe"/><circle cx="153.57" cy="215.03" r=".89" clip-path="url(#cpMzAuODN8NDIxLjc3fDQ3Mi4zN3w1LjQ4)" style="stroke-width:.71;stroke:#bebebe;fill:#bebebe"/><circle cx="104.57" cy="290.26" r=".89" clip-path="url(#cpMzAuODN8NDIxLjc3fDQ3Mi4zN3w1LjQ4)" style="stroke-width:.71;stroke:#bebebe;fill:#bebebe"/><circle cx="115.18" cy="26.7" r=".89" clip-path="url(#cpMzAuODN8NDIxLjc3fDQ3Mi4zN3w1LjQ4)" style="stroke-width:.71;stroke:#bebebe;fill:#bebebe"/><circle cx="119.91" cy="192.89" r=".89" clip-path="url(#cpMzAuODN8NDIxLjc3fDQ3Mi4zN3w1LjQ4)" style="stroke-width:.71;stroke:#bebebe;fill:#bebebe"/><circle cx="85.95" cy="197.41" r=".89" clip-path="url(#cpMzAuODN8NDIxLjc3fDQ3Mi4zN3w1LjQ4)" style="stroke-width:.71;stroke:#bebebe;fill:#bebebe"/><circle cx="172.5" cy="198.49" r=".89" clip-path="url(#cpMzAuODN8NDIxLjc3fDQ3Mi4zN3w1LjQ4)" style="stroke-width:.71;stroke:#bebebe;fill:#bebebe"/><circle cx="144.92" cy="175.39" r=".89" clip-path="url(#cpMzAuODN8NDIxLjc3fDQ3Mi4zN3w1LjQ4)" style="stroke-width:.71;stroke:#bebebe;fill:#bebebe"/><circle cx="181.71" cy="202.5" r=".89" clip-path="url(#cpMzAuODN8NDIxLjc3fDQ3Mi4zN3w1LjQ4)" style="stroke-width:.71;stroke:#bebebe;fill:#bebebe"/><circle cx="102.21" cy="204.58" r=".89" clip-path="url(#cpMzAuODN8NDIxLjc3fDQ3Mi4zN3w1LjQ4)" style="stroke-width:.71;stroke:#bebebe;fill:#bebebe"/><polygon points="53.96 119.02 57.35 127.75 60.74 135.97 64.13 143.68 67.52 150.87 70.92 157.54 74.31 163.68 77.7 169.3 81.09 174.39 84.49 178.98 87.88 183.1 91.27 186.77 94.66 190.04 98.05 192.97 101.45 195.61 104.84 198.02 108.23 200.25 111.62 202.36 115.01 204.37 118.41 206.32 121.8 208.32 125.19 210.61 128.58 213.02 131.98 215.37 135.37 217.5 138.76 219.3 142.15 220.75 145.54 221.92 148.94 223.36 152.33 225.78 155.72 228.22 159.11 229.93 162.5 230.66 165.9 230.71 169.29 230.51 172.68 229.49 176.07 227.22 179.46 223.78 182.86 219.82 186.25 216.24 189.64 213.16 193.03 209.47 196.43 204.98 199.82 200.32 203.21 196.91 206.6 194.25 209.99 191.19 213.39 187.54 216.78 183.96 220.17 180.53 223.56 176.93 226.95 173.25 230.35 169.66 233.74 166.38 237.13 163.41 240.52 160.36 243.92 157.28 247.31 154.23 250.7 151.23 254.09 148.28 257.48 145.34 260.88 142.39 264.27 139.38 267.66 136.25 271.05 132.96 274.44 129.46 277.84 125.71 281.23 121.68 284.62 117.33 288.01 112.65 291.4 107.64 294.8 102.28 298.19 96.58 301.58 90.54 304.97 84.17 308.37 77.48 311.76 70.47 315.15 63.16 318.54 55.55 321.93 47.65 321.93 320.77 318.54 310.15 315.15 300.1 311.76 290.63 308.37 281.76 304.97 273.48 301.58 265.81 298.19 258.76 294.8 252.33 291.4 246.53 288.01 241.34 284.62 236.78 281.23 232.83 277.84 229.47 274.44 226.68 271.05 224.42 267.66 222.65 264.27 221.31 260.88 220.37 257.48 219.77 254.09 219.46 250.7 219.4 247.31 219.57 243.92 219.97 240.52 220.62 237.13 221.56 233.74 222.9 230.35 224.82 226.95 227.28 223.56 230.19 220.17 233.4 216.78 236.73 213.39 239.98 209.99 243.55 206.6 247.75 203.21 252.07 199.82 256.01 196.43 260.72 193.03 266.37 189.64 272.21 186.25 276.64 182.86 279.33 179.46 281.28 176.07 283.15 172.68 285.28 169.29 287.47 165.9 289.01 162.5 289.01 159.11 287.09 155.72 284.27 152.33 281.56 148.94 279.46 145.54 278.1 142.15 276.75 138.76 275.28 135.37 273.86 131.98 272.57 128.58 271.42 125.19 270.35 121.8 269.26 118.41 268.09 115.01 266.84 111.62 265.57 108.23 264.29 104.84 263.05 101.45 261.91 98.05 260.91 94.66 260.13 91.27 259.61 87.88 259.41 84.49 259.58 81.09 260.17 77.7 261.19 74.31 262.66 70.92 264.6 67.52 267 64.13 269.87 60.74 273.21 57.35 277.01 53.96 281.26" clip-path="url(#cpMzAuODN8NDIxLjc3fDQ3Mi4zN3w1LjQ4)" style="stroke-width:0;stroke:none;fill:#999;fill-opacity:.4"/><polyline points="53.96 119.02 57.35 127.75 60.74 135.97 64.13 143.68 67.52 150.87 70.92 157.54 74.31 163.68 77.7 169.3 81.09 174.39 84.49 178.98 87.88 183.1 91.27 186.77 94.66 190.04 98.05 192.97 101.45 195.61 104.84 198.02 108.23 200.25 111.62 202.36 115.01 204.37 118.41 206.32 121.8 208.32 125.19 210.61 128.58 213.02 131.98 215.37 135.37 217.5 138.76 219.3 142.15 220.75 145.54 221.92 148.94 223.36 152.33 225.78 155.72 228.22 159.11 229.93 162.5 230.66 165.9 230.71 169.29 230.51 172.68 229.49 176.07 227.22 179.46 223.78 182.86 219.82 186.25 216.24 189.64 213.16 193.03 209.47 196.43 204.98 199.82 200.32 203.21 196.91 206.6 194.25 209.99 191.19 213.39 187.54 216.78 183.96 220.17 180.53 223.56 176.93 226.95 173.25 230.35 169.66 233.74 166.38 237.13 163.41 240.52 160.36 243.92 157.28 247.31 154.23 250.7 151.23 254.09 148.28 257.48 145.34 260.88 142.39 264.27 139.38 267.66 136.25 271.05 132.96 274.44 129.46 277.84 125.71 281.23 121.68 284.62 117.33 288.01 112.65 291.4 107.64 294.8 102.28 298.19 96.58 301.58 90.54 304.97 84.17 308.37 77.48 311.76 70.47 315.15 63.16 318.54 55.55 321.93 47.65" clip-path="url(#cpMzAuODN8NDIxLjc3fDQ3Mi4zN3w1LjQ4)" style="stroke-width:2.13;stroke:none"/><polyline points="321.93 320.77 318.54 310.15 315.15 300.1 311.76 290.63 308.37 281.76 304.97 273.48 301.58 265.81 298.19 258.76 294.8 252.33 291.4 246.53 288.01 241.34 284.62 236.78 281.23 232.83 277.84 229.47 274.44 226.68 271.05 224.42 267.66 222.65 264.27 221.31 260.88 220.37 257.48 219.77 254.09 219.46 250.7 219.4 247.31 219.57 243.92 219.97 240.52 220.62 237.13 221.56 233.74 222.9 230.35 224.82 226.95 227.28 223.56 230.19 220.17 233.4 216.78 236.73 213.39 239.98 209.99 243.55 206.6 247.75 203.21 252.07 199.82 256.01 196.43 260.72 193.03 266.37 189.64 272.21 186.25 276.64 182.86 279.33 179.46 281.28 176.07 283.15 172.68 285.28 169.29 287.47 165.9 289.01 162.5 289.01 159.11 287.09 155.72 284.27 152.33 281.56 148.94 279.46 145.54 278.1 142.15 276.75 138.76 275.28 135.37 273.86 131.98 272.57 128.58 271.42 125.19 270.35 121.8 269.26 118.41 268.09 115.01 266.84 111.62 265.57 108.23 264.29 104.84 263.05 101.45 261.91 98.05 260.91 94.66 260.13 91.27 259.61 87.88 259.41 84.49 259.58 81.09 260.17 77.7 261.19 74.31 262.66 70.92 264.6 67.52 267 64.13 269.87 60.74 273.21 57.35 277.01 53.96 281.26" clip-path="url(#cpMzAuODN8NDIxLjc3fDQ3Mi4zN3w1LjQ4)" style="stroke-width:2.13;stroke:none"/><polyline points="53.96 200.14 57.35 202.38 60.74 204.59 64.13 206.78 67.52 208.94 70.92 211.07 74.31 213.17 77.7 215.24 81.09 217.28 84.49 219.28 87.88 221.25 91.27 223.19 94.66 225.08 98.05 226.94 101.45 228.76 104.84 230.54 108.23 232.27 111.62 233.96 115.01 235.61 118.41 237.21 121.8 238.79 125.19 240.48 128.58 242.22 131.98 243.97 135.37 245.68 138.76 247.29 142.15 248.75 145.54 250.01 148.94 251.41 152.33 253.67 155.72 256.25 159.11 258.51 162.5 259.84 165.9 259.86 169.29 258.99 172.68 257.38 176.07 255.18 179.46 252.53 182.86 249.57 186.25 246.44 189.64 242.68 193.03 237.92 196.43 232.85 199.82 228.16 203.21 224.49 206.6 221 209.99 217.37 213.39 213.76 216.78 210.34 220.17 206.97 223.56 203.56 226.95 200.27 230.35 197.24 233.74 194.64 237.13 192.48 240.52 190.49 243.92 188.63 247.31 186.9 250.7 185.32 254.09 183.87 257.48 182.55 260.88 181.38 264.27 180.34 267.66 179.45 271.05 178.69 274.44 178.07 277.84 177.59 281.23 177.25 284.62 177.06 288.01 177 291.4 177.08 294.8 177.3 298.19 177.67 301.58 178.18 304.97 178.83 308.37 179.62 311.76 180.55 315.15 181.63 318.54 182.85 321.93 184.21" clip-path="url(#cpMzAuODN8NDIxLjc3fDQ3Mi4zN3w1LjQ4)" style="stroke-width:2.13;stroke:red;stroke-linecap:butt"/><defs><clipPath id="cpMC4wMHw1MDMuOTF8NTAzLjI1fDAuMDA="><rect width="503.91" height="503.25" x="0" y="0"/></clipPath></defs><g clip-path="url(#cpMC4wMHw1MDMuOTF8NTAzLjI1fDAuMDA=)"><text x="18.07" y="402.92" lengthAdjust="spacingAndGlyphs" textLength="7.82" style="font-size:8.8px;fill:#4d4d4d;font-family:Arimo">-4</text></g><g clip-path="url(#cpMC4wMHw1MDMuOTF8NTAzLjI1fDAuMDA=)"><text x="18.07" y="301.83" lengthAdjust="spacingAndGlyphs" textLength="7.82" style="font-size:8.8px;fill:#4d4d4d;font-family:Arimo">-2</text></g><g clip-path="url(#cpMC4wMHw1MDMuOTF8NTAzLjI1fDAuMDA=)"><text x="21" y="200.73" lengthAdjust="spacingAndGlyphs" textLength="4.89" style="font-size:8.8px;fill:#4d4d4d;font-family:Arimo">0</text></g><g clip-path="url(#cpMC4wMHw1MDMuOTF8NTAzLjI1fDAuMDA=)"><text x="21" y="99.64" lengthAdjust="spacingAndGlyphs" textLength="4.89" style="font-size:8.8px;fill:#4d4d4d;font-family:Arimo">2</text></g><polyline points="28.09 399.89 30.83 399.89" clip-path="url(#cpMC4wMHw1MDMuOTF8NTAzLjI1fDAuMDA=)" style="stroke-width:1.07;stroke:#333;stroke-linecap:butt"/><polyline points="28.09 298.8 30.83 298.8" clip-path="url(#cpMC4wMHw1MDMuOTF8NTAzLjI1fDAuMDA=)" style="stroke-width:1.07;stroke:#333;stroke-linecap:butt"/><polyline points="28.09 197.71 30.83 197.71" clip-path="url(#cpMC4wMHw1MDMuOTF8NTAzLjI1fDAuMDA=)" style="stroke-width:1.07;stroke:#333;stroke-linecap:butt"/><polyline points="28.09 96.61 30.83 96.61" clip-path="url(#cpMC4wMHw1MDMuOTF8NTAzLjI1fDAuMDA=)" style="stroke-width:1.07;stroke:#333;stroke-linecap:butt"/><polyline points="103.47 475.11 103.47 472.37" clip-path="url(#cpMC4wMHw1MDMuOTF8NTAzLjI1fDAuMDA=)" style="stroke-width:1.07;stroke:#333;stroke-linecap:butt"/><polyline points="213.21 475.11 213.21 472.37" clip-path="url(#cpMC4wMHw1MDMuOTF8NTAzLjI1fDAuMDA=)" style="stroke-width:1.07;stroke:#333;stroke-linecap:butt"/><polyline points="322.95 475.11 322.95 472.37" clip-path="url(#cpMC4wMHw1MDMuOTF8NTAzLjI1fDAuMDA=)" style="stroke-width:1.07;stroke:#333;stroke-linecap:butt"/><g clip-path="url(#cpMC4wMHw1MDMuOTF8NTAzLjI1fDAuMDA=)"><text x="101.02" y="483.35" lengthAdjust="spacingAndGlyphs" textLength="4.89" style="font-size:8.8px;fill:#4d4d4d;font-family:Arimo">1</text></g><g clip-path="url(#cpMC4wMHw1MDMuOTF8NTAzLjI1fDAuMDA=)"><text x="205.87" y="483.35" lengthAdjust="spacingAndGlyphs" textLength="14.68" style="font-size:8.8px;fill:#4d4d4d;font-family:Arimo">100</text></g><g clip-path="url(#cpMC4wMHw1MDMuOTF8NTAzLjI1fDAuMDA=)"><text x="310.71" y="483.35" lengthAdjust="spacingAndGlyphs" textLength="24.47" style="font-size:8.8px;fill:#4d4d4d;font-family:Arimo">10000</text></g><g clip-path="url(#cpMC4wMHw1MDMuOTF8NTAzLjI1fDAuMDA=)"><text x="200.61" y="495.49" lengthAdjust="spacingAndGlyphs" textLength="51.37" style="font-size:11px;font-family:Arimo">baseMean</text></g><g clip-path="url(#cpMC4wMHw1MDMuOTF8NTAzLjI1fDAuMDA=)"><text style="font-size:11px;font-family:Arimo" lengthAdjust="spacingAndGlyphs" textLength="80.73" transform="translate(13.05,279.29) rotate(-90)">log2FoldChange</text></g><rect width="65.7" height="60.85" x="432.73" y="208.5" clip-path="url(#cpMC4wMHw1MDMuOTF8NTAzLjI1fDAuMDA=)" style="stroke-width:1.07;stroke:none;fill:#fff"/><g clip-path="url(#cpMC4wMHw1MDMuOTF8NTAzLjI1fDAuMDA=)"><text x="438.21" y="222.69" lengthAdjust="spacingAndGlyphs" textLength="54.74" style="font-size:11px;font-family:Arimo">padj &lt; 0.05</text></g><rect width="17.28" height="17.28" x="438.21" y="229.31" clip-path="url(#cpMC4wMHw1MDMuOTF8NTAzLjI1fDAuMDA=)" style="stroke-width:1.07;stroke:none;fill:#f2f2f2"/><circle cx="446.85" cy="237.95" r=".89" clip-path="url(#cpMC4wMHw1MDMuOTF8NTAzLjI1fDAuMDA=)" style="stroke-width:.71;stroke:#bebebe;fill:#bebebe"/><rect width="17.28" height="17.28" x="438.21" y="246.59" clip-path="url(#cpMC4wMHw1MDMuOTF8NTAzLjI1fDAuMDA=)" style="stroke-width:1.07;stroke:none;fill:#f2f2f2"/><circle cx="446.85" cy="255.23" r=".89" clip-path="url(#cpMC4wMHw1MDMuOTF8NTAzLjI1fDAuMDA=)" style="stroke-width:.71;stroke:red;fill:red"/><g clip-path="url(#cpMC4wMHw1MDMuOTF8NTAzLjI1fDAuMDA=)"><text x="460.97" y="240.98" lengthAdjust="spacingAndGlyphs" textLength="27.88" style="font-size:8.8px;font-family:Arimo">FALSE</text></g><g clip-path="url(#cpMC4wMHw1MDMuOTF8NTAzLjI1fDAuMDA=)"><text x="460.97" y="258.26" lengthAdjust="spacingAndGlyphs" textLength="23.96" style="font-size:8.8px;font-family:Arimo">TRUE</text></g></svg>