<?xml version="1.0" encoding="UTF-8" standalone="no"?>
<svg
   xmlns:dc="http://purl.org/dc/elements/1.1/"
   xmlns:cc="http://creativecommons.org/ns#"
   xmlns:rdf="http://www.w3.org/1999/02/22-rdf-syntax-ns#"
   xmlns:svg="http://www.w3.org/2000/svg"
   xmlns="http://www.w3.org/2000/svg"
   xmlns:xlink="http://www.w3.org/1999/xlink"
   xmlns:sodipodi="http://sodipodi.sourceforge.net/DTD/sodipodi-0.dtd"
   xmlns:inkscape="http://www.inkscape.org/namespaces/inkscape"
   enable-background="new 0 0 128 128"
   height="218"
   id="Layer_1"
   version="1.1"
   viewBox="0 0 448 218"
   width="448"
   xml:space="preserve"
   sodipodi:docname="logo.svg"
   inkscape:export-filename="/home/dcassol/danielac@ucr.edu/projects/sytemPipeR_logo/iconfinder_46_1319565.png"
   inkscape:export-xdpi="297.00018"
   inkscape:export-ydpi="297.00018"
   inkscape:version="0.92.5 (2060ec1f9f, 2020-04-08)"><metadata
     id="metadata219"><rdf:RDF><cc:Work
         rdf:about=""><dc:format>image/svg+xml</dc:format><dc:type
           rdf:resource="http://purl.org/dc/dcmitype/StillImage" /><dc:title></dc:title></cc:Work></rdf:RDF></metadata><defs
     id="defs217"><linearGradient
       inkscape:collect="always"
       id="linearGradient2530"><stop
         style="stop-color:#a6dae8;stop-opacity:1;"
         offset="0"
         id="stop2526" /><stop
         style="stop-color:#a6dae8;stop-opacity:0;"
         offset="1"
         id="stop2528" /></linearGradient><radialGradient
       inkscape:collect="always"
       xlink:href="#linearGradient2530"
       id="radialGradient2534"
       cx="48.106136"
       cy="96.236458"
       fx="48.106136"
       fy="96.236458"
       r="19.563866"
       gradientTransform="matrix(1,0,0,1.623578,-22.508474,-97.434663)"
       gradientUnits="userSpaceOnUse" /><meshgradient
       inkscape:collect="always"
       id="meshgradient2632"
       gradientUnits="userSpaceOnUse"
       x="17.689285"
       y="-106.70571"
       gradientTransform="matrix(1.7655814,0,0,3.6785315,-86.847451,11.045928)"><meshrow
         id="meshrow2634"><meshpatch
           id="meshpatch2636"><stop
             path="c 23.5857,-23.5857  61.8257,-23.5857  85.4114,0"
             style="stop-color:#ffffff;stop-opacity:1"
             id="stop2638" /><stop
             path="c 23.5857,23.5857  23.5857,61.8257  0,85.4114"
             style="stop-color:#d1ecfb;stop-opacity:1"
             id="stop2640" /><stop
             path="c -23.5857,23.5857  -61.8257,23.5857  -85.4114,7.10543e-15"
             style="stop-color:#ffffff;stop-opacity:1"
             id="stop2642" /><stop
             path="c -23.5857,-23.5857  -23.5857,-61.8257  -1.42109e-14,-85.4114"
             style="stop-color:#d1ecfb;stop-opacity:1"
             id="stop2644" /></meshpatch></meshrow></meshgradient></defs><sodipodi:namedview
     pagecolor="#ffffff"
     bordercolor="#666666"
     borderopacity="1"
     objecttolerance="10"
     gridtolerance="10"
     guidetolerance="10"
     inkscape:pageopacity="0"
     inkscape:pageshadow="2"
     inkscape:window-width="1993"
     inkscape:window-height="1376"
     id="namedview215"
     showgrid="false"
     inkscape:zoom="0.92187503"
     inkscape:cx="17.502666"
     inkscape:cy="124.76621"
     inkscape:window-x="1447"
     inkscape:window-y="27"
     inkscape:window-maximized="0"
     inkscape:current-layer="g212" /><g
     id="g212"
     transform="translate(0,90)"><ellipse
   cx="19.78483"
   cy="-224.3801"
   id="circle2"
   style="opacity:0.83600003;fill:url(#meshgradient2632);fill-opacity:1;stroke-width:2.54847932"
   transform="rotate(90)"
   inkscape:export-xdpi="297.00018"
   inkscape:export-ydpi="297.00018"
   rx="106.63229"
   ry="222.16493" /><g
   id="g210"
   transform="matrix(2.0143101,0,0,2.0143101,17.896238,-87.939959)"><path
     d="m 66.829526,46.055272 -3.862,0.922 c -0.6,-1.295 -1.291,-2.522 -2.061,-3.688 l 2.783,-2.633 c 0.666,-0.633 0.693,-1.683 0.063,-2.356 l -4.57,-4.83 c -0.635,-0.666 -1.688,-0.693 -2.354,-0.065 l -2.895,2.737 c -1.146,-0.813 -2.356,-1.539 -3.617,-2.162 l 1.098,-3.682 c 0.26,-0.883 -0.24,-1.806 -1.122,-2.07 l -6.374,-1.901 c -0.88,-0.259 -1.804,0.24 -2.065,1.121 l -1.136,3.813 c -1.393,-0.133 -2.803,-0.149 -4.221,-0.06 l -0.891,-3.737 c -0.214,-0.894 -1.109,-1.448 -2.006,-1.234 l -6.469,1.543 c -0.899,0.213 -1.451,1.112 -1.237,2.005 l 0.921,3.867 c -1.289,0.594 -2.518,1.279 -3.682,2.055 l -2.628,-2.784 c -0.637,-0.671 -1.688,-0.696 -2.364,-0.063 l -4.83,4.574 c -0.665,0.627 -0.695,1.681 -0.063,2.349 l 2.739,2.895 c -0.813,1.146 -1.542,2.355 -2.163,3.616 l -3.679,-1.098 c -0.8850002,-0.26 -1.8060002,0.246 -2.0710002,1.125 l -1.905,6.375 c -0.264,0.877 0.24,1.806 1.122,2.068 l 3.8120002,1.135 c -0.128,1.39 -0.147,2.798 -0.058,4.215 l -3.7310002,0.89 c -0.899,0.215 -1.45,1.114 -1.237,2.01 l 1.542,6.469 c 0.213,0.896 1.109,1.447 2.01,1.232 l 3.8620002,-0.921 c 0.592,1.292 1.28,2.528 2.054,3.688 l -2.785,2.634 c -0.668,0.632 -0.694,1.682 -0.066,2.349 l 4.57,4.838 c 0.629,0.664 1.687,0.694 2.354,0.063 l 2.892,-2.736 c 1.151,0.812 2.361,1.541 3.622,2.165 l -1.094,3.684 c -0.268,0.879 0.235,1.808 1.113,2.066 l 6.382,1.896 c 0.878,0.263 1.806,-0.235 2.063,-1.113 l 1.139,-3.813 c 1.389,0.125 2.798,0.146 4.218,0.053 l 0.893,3.74 c 0.213,0.894 1.105,1.442 1.997,1.229 l 6.477,-1.539 c 0.895,-0.213 1.445,-1.11 1.232,-2.005 l -0.922,-3.865 c 1.289,-0.597 2.521,-1.281 3.688,-2.055 l 2.633,2.779 c 0.632,0.672 1.677,0.697 2.351,0.066 l 4.836,-4.572 c 0.666,-0.627 0.692,-1.683 0.063,-2.354 l -2.739,-2.891 c 0.815,-1.147 1.544,-2.356 2.169,-3.619 l 3.682,1.1 c 0.883,0.26 1.804,-0.242 2.068,-1.121 l 1.899,-6.379 c 0.262,-0.877 -0.243,-1.805 -1.116,-2.066 l -3.814,-1.141 c 0.131,-1.384 0.147,-2.794 0.063,-4.21 l 3.734,-0.891 c 0.893,-0.213 1.438,-1.11 1.228,-2.008 l -1.541,-6.47 c -0.212,-0.898 -1.113,-1.444 -2.004,-1.234 z m -25.89,23.716 c -6.292,1.498 -12.605,-2.387 -14.105,-8.678 -1.499,-6.29 2.386,-12.604 8.677,-14.104 6.291,-1.499 12.606,2.385 14.106,8.677 1.498,6.289 -2.387,12.606 -8.678,14.105 z"
     id="path52"
     style="fill:#3c5782;fill-opacity:0.98431373"
     inkscape:connector-curvature="0" /><path
     d="m 41.657526,75.289272 c -9.08,1.85 -18.058,-3.824 -20.221,-12.906 -2.165,-9.083 3.288,-18.198 12.227,-20.642 l -3.5,-14.692 -3.03,0.724 c -0.899,0.213 -1.451,1.112 -1.237,2.005 l 0.921,3.867 c -1.289,0.594 -2.518,1.279 -3.682,2.055 l -2.628,-2.784 c -0.637,-0.671 -1.688,-0.696 -2.364,-0.063 l -4.83,4.574 c -0.665,0.627 -0.695,1.681 -0.063,2.349 l 2.739,2.895 c -0.813,1.146 -1.542,2.355 -2.163,3.616 l -3.679,-1.098 c -0.8850002,-0.26 -1.8060002,0.246 -2.0710002,1.125 l -1.905,6.375 c -0.264,0.877 0.24,1.806 1.122,2.068 l 3.8120002,1.135 c -0.128,1.39 -0.147,2.798 -0.058,4.215 l -3.7300002,0.89 c -0.9,0.215 -1.451,1.114 -1.238,2.01 l 1.542,6.469 c 0.213,0.896 1.109,1.447 2.01,1.232 l 3.8620002,-0.921 c 0.592,1.292 1.28,2.528 2.054,3.688 l -2.785,2.634 c -0.668,0.632 -0.693,1.682 -0.066,2.349 l 4.57,4.838 c 0.629,0.664 1.687,0.694 2.354,0.063 l 2.892,-2.736 c 1.151,0.812 2.361,1.541 3.622,2.165 l -1.094,3.684 c -0.268,0.879 0.236,1.808 1.113,2.066 l 6.382,1.896 c 0.878,0.263 1.806,-0.235 2.063,-1.113 l 1.139,-3.813 c 1.389,0.125 2.798,0.146 4.218,0.053 l 0.893,3.74 c 0.213,0.894 1.105,1.442 1.997,1.229 l 2.316,-0.549 z"
     id="path56"
     style="fill:url(#radialGradient2534);fill-opacity:1"
     inkscape:connector-curvature="0" /><path
     d="m 34.314526,41.977272 1.196,5.013 c 6.291,-1.499 12.606,2.385 14.106,8.677 1.498,6.288 -2.387,12.605 -8.678,14.104 l 1.193,5.013 c 9.06,-2.159 14.653,-11.256 12.496,-20.313 -2.158,-9.058 -11.253,-14.653 -20.313,-12.494 z"
     id="path72"
     style="fill:#3e5a85;fill-opacity:1"
     inkscape:connector-curvature="0" /><g
     id="g76"
     transform="translate(-22.508474,-37.423728)"><path
       d="m 60.719,113.066 c -8.016,0 -14.913,-5.452 -16.773,-13.26 -2.206,-9.258 3.53,-18.585 12.786,-20.792 1.319,-0.313 2.67,-0.474 4.015,-0.474 8.017,0 14.916,5.453 16.778,13.263 2.205,9.257 -3.532,18.583 -12.791,20.788 -1.32,0.316 -2.67,0.475 -4.015,0.475 z m 0.026,-33.732 c -1.282,0 -2.57,0.151 -3.831,0.452 -8.831,2.105 -14.304,11.005 -12.198,19.837 1.774,7.448 8.355,12.65 16.002,12.65 1.283,0 2.572,-0.151 3.831,-0.451 8.833,-2.105 14.308,-11.004 12.202,-19.833 C 74.976,84.538 68.394,79.334 60.745,79.334 Z"
       id="path74"
       style="fill:#a6dae9;fill-opacity:1"
       inkscape:connector-curvature="0" /></g></g><text
   xml:space="preserve"
   style="font-style:normal;font-weight:normal;font-size:80.57240295px;line-height:1.25;font-family:sans-serif;letter-spacing:0px;word-spacing:0px;fill:#3e5884;fill-opacity:0.99607843;stroke:none;stroke-width:2.01431012"
   x="166.47722"
   y="42.068413"
   id="text855"><tspan
     sodipodi:role="line"
     id="tspan853"
     x="166.47722"
     y="42.068413"
     style="font-style:normal;font-variant:normal;font-weight:normal;font-stretch:normal;font-size:80.57240295px;font-family:Coolvetica;-inkscape-font-specification:'Coolvetica, Normal';font-variant-ligatures:normal;font-variant-caps:normal;font-variant-numeric:normal;font-feature-settings:normal;text-align:start;writing-mode:lr-tb;text-anchor:start;fill:#3e5884;fill-opacity:0.99607843;stroke-width:2.01431012">sysPipe</tspan></text>

</g></svg>